<?xml version="1.0"?>
<COLLADA xmlns="http://www.collada.org/2005/11/COLLADASchema" version="1.4.1">
  <asset>
    <contributor>
      <author>Assimp</author>
      <authoring_tool>Assimp Exporter</authoring_tool>
    </contributor>
    <created>2018-02-25T18:56:12</created>
    <modified>2018-02-25T18:56:12</modified>
    <unit name="meter" meter="0.01" />
    <up_axis>Y_UP</up_axis>
  </asset>
  <library_effects>
    <effect id="Top-fx" name="Top">
      <profile_COMMON>
        <technique sid="standard">
          <phong>
            <emission>
              <color sid="emission">0   0   0   1</color>
            </emission>
            <ambient>
              <color sid="ambient">0   0   0   1</color>
            </ambient>
            <diffuse>
              <color sid="diffuse">1   1   1   1</color>
            </diffuse>
            <specular>
              <color sid="specular">1   1   1   1</color>
            </specular>
            <shininess>
              <float sid="shininess">400</float>
            </shininess>
            <transparency>
              <float sid="transparency">0</float>
            </transparency>
            <index_of_refraction>
              <float sid="index_of_refraction">1</float>
            </index_of_refraction>
          </phong>
        </technique>
      </profile_COMMON>
    </effect>
    <effect id="Mid-fx" name="Mid">
      <profile_COMMON>
        <technique sid="standard">
          <phong>
            <emission>
              <color sid="emission">0   0   0   1</color>
            </emission>
            <ambient>
              <color sid="ambient">0   0   0   1</color>
            </ambient>
            <diffuse>
              <color sid="diffuse">1   1   1   1</color>
            </diffuse>
            <specular>
              <color sid="specular">1   1   1   1</color>
            </specular>
            <shininess>
              <float sid="shininess">400</float>
            </shininess>
            <transparency>
              <float sid="transparency">0</float>
            </transparency>
            <index_of_refraction>
              <float sid="index_of_refraction">1</float>
            </index_of_refraction>
          </phong>
        </technique>
      </profile_COMMON>
    </effect>
    <effect id="Bot-fx" name="Bot">
      <profile_COMMON>
        <technique sid="standard">
          <phong>
            <emission>
              <color sid="emission">0   0   0   1</color>
            </emission>
            <ambient>
              <color sid="ambient">0   0   0   1</color>
            </ambient>
            <diffuse>
              <color sid="diffuse">1   1   1   1</color>
            </diffuse>
            <specular>
              <color sid="specular">1   1   1   1</color>
            </specular>
            <shininess>
              <float sid="shininess">400</float>
            </shininess>
            <transparency>
              <float sid="transparency">0</float>
            </transparency>
            <index_of_refraction>
              <float sid="index_of_refraction">1</float>
            </index_of_refraction>
          </phong>
        </technique>
      </profile_COMMON>
    </effect>
  </library_effects>
  <library_materials>
    <material id="Top" name="Top">
      <instance_effect url="#Top-fx"/>
    </material>
    <material id="Mid" name="Mid">
      <instance_effect url="#Mid-fx"/>
    </material>
    <material id="Bot" name="Bot">
      <instance_effect url="#Bot-fx"/>
    </material>
  </library_materials>
  <library_geometries>
    <geometry id="meshId0" name="meshId0_name" >
      <mesh>
        <source id="meshId0-positions" name="meshId0-positions">
          <float_array id="meshId0-positions-array" count="360"> 0.820313 -0.14552 1 0.820313 -0.0963139 1 0.603782 -0.0963139 1 0.603782 -0.14552 1 0.820313 -0.14552 -1 0.820313 -0.0963139 -1 0.820313 -0.0963139 1 0.820313 -0.14552 1 0.603782 -0.14552 -1 0.603782 -0.0963139 -1 0.820313 -0.0963139 -1 0.820313 -0.14552 -1 0.603782 -0.14552 1 0.603782 -0.0963139 1 0.603782 -0.0963139 -1 0.603782 -0.14552 -1 0.820313 -0.0963139 1 0.820313 -0.0963139 -1 0.603782 -0.0963139 -1 0.603782 -0.0963139 1 0.820313 -0.14552 -1 0.820313 -0.14552 1 0.603782 -0.14552 1 0.603782 -0.14552 -1 0.478734 -0.14552 1 0.478734 -0.0963139 1 0.262204 -0.0963139 1 0.262204 -0.14552 1 0.478734 -0.14552 -1 0.478734 -0.0963139 -1 0.478734 -0.0963139 1 0.478734 -0.14552 1 0.262204 -0.14552 -1 0.262204 -0.0963139 -1 0.478734 -0.0963139 -1 0.478734 -0.14552 -1 0.262204 -0.14552 1 0.262204 -0.0963139 1 0.262204 -0.0963139 -1 0.262204 -0.14552 -1 0.478734 -0.0963139 1 0.478734 -0.0963139 -1 0.262204 -0.0963139 -1 0.262204 -0.0963139 1 0.478734 -0.14552 -1 0.478734 -0.14552 1 0.262204 -0.14552 1 0.262204 -0.14552 -1 0.115457 -0.14552 1 0.115457 -0.0963139 1 -0.101074 -0.0963139 1 -0.101074 -0.14552 1 0.115457 -0.14552 -1 0.115457 -0.0963139 -1 0.115457 -0.0963139 1 0.115457 -0.14552 1 -0.101074 -0.14552 -1 -0.101074 -0.0963139 -1 0.115457 -0.0963139 -1 0.115457 -0.14552 -1 -0.101074 -0.14552 1 -0.101074 -0.0963139 1 -0.101074 -0.0963139 -1 -0.101074 -0.14552 -1 0.115457 -0.0963139 1 0.115457 -0.0963139 -1 -0.101074 -0.0963139 -1 -0.101074 -0.0963139 1 0.115457 -0.14552 -1 0.115457 -0.14552 1 -0.101074 -0.14552 1 -0.101074 -0.14552 -1 -0.238149 -0.14552 1 -0.238149 -0.0963139 1 -0.45468 -0.0963139 1 -0.45468 -0.14552 1 -0.238149 -0.14552 -1 -0.238149 -0.0963139 -1 -0.238149 -0.0963139 1 -0.238149 -0.14552 1 -0.45468 -0.14552 -1 -0.45468 -0.0963139 -1 -0.238149 -0.0963139 -1 -0.238149 -0.14552 -1 -0.45468 -0.14552 1 -0.45468 -0.0963139 1 -0.45468 -0.0963139 -1 -0.45468 -0.14552 -1 -0.238149 -0.0963139 1 -0.238149 -0.0963139 -1 -0.45468 -0.0963139 -1 -0.45468 -0.0963139 1 -0.238149 -0.14552 -1 -0.238149 -0.14552 1 -0.45468 -0.14552 1 -0.45468 -0.14552 -1 -0.603782 -0.14552 1 -0.603782 -0.0963139 1 -0.820313 -0.0963139 1 -0.820313 -0.14552 1 -0.603782 -0.14552 -1 -0.603782 -0.0963139 -1 -0.603782 -0.0963139 1 -0.603782 -0.14552 1 -0.820313 -0.14552 -1 -0.820313 -0.0963139 -1 -0.603782 -0.0963139 -1 -0.603782 -0.14552 -1 -0.820313 -0.14552 1 -0.820313 -0.0963139 1 -0.820313 -0.0963139 -1 -0.820313 -0.14552 -1 -0.603782 -0.0963139 1 -0.603782 -0.0963139 -1 -0.820313 -0.0963139 -1 -0.820313 -0.0963139 1 -0.603782 -0.14552 -1 -0.603782 -0.14552 1 -0.820313 -0.14552 1 -0.820313 -0.14552 -1 </float_array>
          <technique_common>
            <accessor count="120" offset="0" source="#meshId0-positions-array" stride="3">
              <param name="X" type="float" />
              <param name="Y" type="float" />
              <param name="Z" type="float" />
            </accessor>
          </technique_common>
        </source>
        <source id="meshId0-normals" name="meshId0-normals">
          <float_array id="meshId0-normals-array" count="360"> 0 0 1 0 0 1 0 0 1 0 0 1 1 0 0 1 0 0 1 0 0 1 0 0 0 0 -1 0 0 -1 0 0 -1 0 0 -1 -1 0 0 -1 0 0 -1 0 0 -1 0 0 0 1 0 0 1 0 0 1 0 0 1 0 0 -1 0 0 -1 0 0 -1 0 0 -1 0 0 0 1 0 0 1 0 0 1 0 0 1 1 0 0 1 0 0 1 0 0 1 0 0 0 0 -1 0 0 -1 0 0 -1 0 0 -1 -1 0 0 -1 0 0 -1 0 0 -1 0 0 0 1 0 0 1 0 0 1 0 0 1 0 0 -1 0 0 -1 0 0 -1 0 0 -1 0 0 0 1 0 0 1 0 0 1 0 0 1 1 0 0 1 0 0 1 0 0 1 0 0 0 0 -1 0 0 -1 0 0 -1 0 0 -1 -1 0 0 -1 0 0 -1 0 0 -1 0 0 0 1 0 0 1 0 0 1 0 0 1 0 0 -1 0 0 -1 0 0 -1 0 0 -1 0 0 0 1 0 0 1 0 0 1 0 0 1 1 0 0 1 0 0 1 0 0 1 0 0 0 0 -1 0 0 -1 0 0 -1 0 0 -1 -1 0 0 -1 0 0 -1 0 0 -1 0 0 0 1 0 0 1 0 0 1 0 0 1 0 0 -1 0 0 -1 0 0 -1 0 0 -1 0 0 0 1 0 0 1 0 0 1 0 0 1 1 0 0 1 0 0 1 0 0 1 0 0 0 0 -1 0 0 -1 0 0 -1 0 0 -1 -1 0 0 -1 0 0 -1 0 0 -1 0 0 0 1 0 0 1 0 0 1 0 0 1 0 0 -1 0 0 -1 0 0 -1 0 0 -1 0 </float_array>
          <technique_common>
            <accessor count="120" offset="0" source="#meshId0-normals-array" stride="3">
              <param name="X" type="float" />
              <param name="Y" type="float" />
              <param name="Z" type="float" />
            </accessor>
          </technique_common>
        </source>
        <source id="meshId0-tangents" name="meshId0-tangents">
          <float_array id="meshId0-tangents-array" count="360"> 0.0110104 0.999939 0 0.0110104 0.999939 0 0.0110104 0.999939 0 0.0110104 0.999939 0 0 -0.010982 -0.99994 0 -0.010982 -0.99994 0 -0.0109784 -0.99994 0 -0.0109785 -0.99994 0.0109122 -0.999941 0 0.0109262 -0.99994 0 0.0110105 -0.999939 0 0.0109965 -0.99994 0 0 0.0109784 -0.99994 0 0.0109785 -0.99994 0 0.010982 -0.99994 0 0.010982 -0.99994 0.0109788 0 -0.99994 0.0109809 0 -0.99994 0.010981 0 -0.99994 0.0109789 0 -0.99994 -0.0109813 0 -0.99994 -0.0109813 0 -0.99994 -0.0109813 0 -0.99994 -0.0109813 0 -0.99994 0 -1 0 1.44541e-05 -1 0 0.000101606 -1 0 8.71523e-05 -1 0 0 0 1 0 0 1 0 0 1 0 0 1 0 1 0 0 1 0 0 1 0 0 1 0 0 0 1 0 0 1 0 0 1 0 0 1 0 0 1 0 0 1 0 0 1 0 0 1 0 0 1 0 0 1 0 0 1 0 0 1 0.00770851 0.99997 0 0.00769408 0.99997 0 0.00760708 0.999971 0 0.00762151 0.999971 0 0 -0.00763435 -0.999971 0 -0.00763435 -0.999971 0 -0.00763454 -0.999971 0 -0.00763454 -0.999971 0.00760708 -0.999971 0 0.00762066 -0.999971 0 0.00770249 -0.99997 0 0.00768892 -0.99997 0 0 0.00763689 -0.999971 0 0.00763689 -0.999971 0 0.00763689 -0.999971 0 0.00763689 -0.999971 0.00763459 0 -0.999971 0.00763663 0 -0.999971 0.00763678 0 -0.999971 0.00763474 0 -0.999971 -0.00763447 0 -0.999971 -0.00763662 0 -0.999971 -0.00763678 0 -0.999971 -0.00763463 0 -0.999971 -0.00249963 -0.999997 0 -0.00249963 -0.999997 0 -0.00249963 -0.999997 0 -0.00249963 -0.999997 0 0 0.00250185 0.999997 0 0.00250189 0.999997 0 0.00250459 0.999997 0 0.00250455 0.999997 -0.00249968 0.999997 0 -0.00250054 0.999997 0 -0.00250571 0.999997 0 -0.00250485 0.999997 0 0 -0.00250225 0.999997 0 -0.00250225 0.999997 0 -0.00250225 0.999997 0 -0.00250225 0.999997 -0.0025045 0 0.999997 -0.00250236 0 0.999997 -0.00250221 0 0.999997 -0.00250434 0 0.999997 0.00250206 0 0.999997 0.00250219 0 0.999997 0.00250221 0 0.999997 0.00250207 0 0.999997 0 -1 0 1.35966e-05 -1 0 9.55788e-05 -1 0 8.19822e-05 -1 0 0 0 1 0 0 1 0 0 1 0 0 1 0 1 0 0 1 0 0 1 0 0 1 0 0 0 1 0 0 1 0 0 1 0 0 1 0 0 1 0 0 1 0 0 1 0 0 1 0 0 1 0 0 1 0 0 1 0 0 1 </float_array>
          <technique_common>
            <accessor count="120" offset="0" source="#meshId0-tangents-array" stride="3">
              <param name="X" type="float" />
              <param name="Y" type="float" />
              <param name="Z" type="float" />
            </accessor>
          </technique_common>
        </source>
        <source id="meshId0-bitangents" name="meshId0-bitangents">
          <float_array id="meshId0-bitangents-array" count="360"> -0.999939 0.0110104 0 -0.999939 0.0110104 0 -0.999939 0.0110104 0 -0.999939 0.0110104 0 0 0.99994 -0.010982 0 0.99994 -0.010982 0 0.99994 -0.0109784 0 0.99994 -0.0109785 -0.999941 -0.0109122 -0 -0.99994 -0.0109262 -0 -0.999939 -0.0110105 -0 -0.99994 -0.0109965 -0 -0 -0.99994 -0.0109784 -0 -0.99994 -0.0109785 -0 -0.99994 -0.010982 -0 -0.99994 -0.010982 -0.99994 0 -0.0109788 -0.99994 0 -0.0109809 -0.99994 0 -0.010981 -0.99994 0 -0.0109789 0.99994 0 -0.0109813 0.99994 0 -0.0109813 0.99994 0 -0.0109813 0.99994 0 -0.0109813 1 0 -0 1 1.44541e-05 -0 1 0.000101606 -0 1 8.71523e-05 -0 0 -1 0 0 -1 0 0 -1 0 0 -1 0 1 -0 0 1 -0 0 1 -0 0 1 -0 0 0 1 -0 0 1 -0 0 1 -0 0 1 -0 1 0 0 1 0 0 1 0 0 1 0 0 -1 0 0 -1 0 0 -1 0 0 -1 0 0 -0.99997 0.00770851 0 -0.99997 0.00769408 0 -0.999971 0.00760708 0 -0.999971 0.00762151 0 0 0.999971 -0.00763435 0 0.999971 -0.00763435 0 0.999971 -0.00763454 0 0.999971 -0.00763454 -0.999971 -0.00760708 -0 -0.999971 -0.00762066 -0 -0.99997 -0.00770249 -0 -0.99997 -0.00768892 -0 -0 -0.999971 -0.00763689 -0 -0.999971 -0.00763689 -0 -0.999971 -0.00763689 -0 -0.999971 -0.00763689 -0.999971 0 -0.00763459 -0.999971 0 -0.00763663 -0.999971 0 -0.00763678 -0.999971 0 -0.00763474 0.999971 0 -0.00763447 0.999971 0 -0.00763662 0.999971 0 -0.00763678 0.999971 0 -0.00763463 0.999997 -0.00249963 0 0.999997 -0.00249963 0 0.999997 -0.00249963 0 0.999997 -0.00249963 0 0 -0.999997 0.00250185 0 -0.999997 0.00250189 0 -0.999997 0.00250459 0 -0.999997 0.00250455 0.999997 0.00249968 0 0.999997 0.00250054 0 0.999997 0.00250571 0 0.999997 0.00250485 0 0 0.999997 0.00250225 0 0.999997 0.00250225 0 0.999997 0.00250225 0 0.999997 0.00250225 0.999997 -0 0.0025045 0.999997 -0 0.00250236 0.999997 -0 0.00250221 0.999997 -0 0.00250434 -0.999997 0 0.00250206 -0.999997 0 0.00250219 -0.999997 0 0.00250221 -0.999997 0 0.00250207 1 0 -0 1 1.35966e-05 -0 1 9.55788e-05 -0 1 8.19822e-05 -0 0 -1 0 0 -1 0 0 -1 0 0 -1 0 1 -0 0 1 -0 0 1 -0 0 1 -0 0 0 1 -0 0 1 -0 0 1 -0 0 1 -0 1 0 0 1 0 0 1 0 0 1 0 0 -1 0 0 -1 0 0 -1 0 0 -1 0 0 </float_array>
          <technique_common>
            <accessor count="120" offset="0" source="#meshId0-bitangents-array" stride="3">
              <param name="X" type="float" />
              <param name="Y" type="float" />
              <param name="Z" type="float" />
            </accessor>
          </technique_common>
        </source>
        <source id="meshId0-tex0" name="meshId0-tex0">
          <float_array id="meshId0-tex0-array" count="240"> 0.549253 0.42772 0.559242 0.42783 0.558759 0.471789 0.54877 0.471679 0.965381 0.422299 0.965271 0.432288 0.559242 0.42783 0.559352 0.41784 0.974779 0.476357 0.964788 0.476248 0.965271 0.432288 0.975262 0.432398 0.558648 0.481779 0.558759 0.471789 0.964788 0.476248 0.964678 0.486237 0.559242 0.42783 0.965271 0.432288 0.964788 0.476248 0.558759 0.471789 0.965381 0.422299 0.559352 0.41784 0.559835 0.373881 0.965864 0.37834 0.973723 0.555263 0.963733 0.555263 0.963732 0.511302 0.973722 0.511301 0.557677 0.565254 0.557677 0.555263 0.963733 0.555263 0.963732 0.565254 0.547687 0.511302 0.557677 0.511302 0.557677 0.555263 0.547687 0.555263 0.963732 0.501312 0.963732 0.511302 0.557677 0.511302 0.557677 0.501312 0.963733 0.555263 0.557677 0.555263 0.557677 0.511302 0.963732 0.511302 0.557677 0.565254 0.963732 0.565254 0.963732 0.609215 0.557677 0.609215 0.539511 0.679046 0.549501 0.679123 0.549163 0.723083 0.539173 0.723007 0.95562 0.672233 0.955544 0.682223 0.549501 0.679123 0.549577 0.669133 0.965198 0.72626 0.955208 0.726184 0.955544 0.682223 0.965534 0.6823 0.549087 0.733073 0.549163 0.723083 0.955208 0.726184 0.955131 0.736174 0.549501 0.679123 0.955544 0.682223 0.955208 0.726184 0.549163 0.723083 0.95562 0.672233 0.549577 0.669133 0.549913 0.625172 0.955956 0.628273 0.96005 0.803247 0.95006 0.803222 0.950168 0.75926 0.960159 0.759285 0.543981 0.812196 0.544005 0.802205 0.95006 0.803222 0.950034 0.813212 0.534125 0.758219 0.544116 0.758244 0.544005 0.802205 0.534016 0.80218 0.950193 0.74927 0.950168 0.75926 0.544116 0.758244 0.544141 0.748254 0.95006 0.803222 0.544005 0.802205 0.544116 0.758244 0.950168 0.75926 0.543981 0.812196 0.950034 0.813212 0.949924 0.857173 0.543871 0.856157 0.961025 0.924256 0.951035 0.924256 0.951034 0.880295 0.961024 0.880294 0.54498 0.934246 0.54498 0.924256 0.951035 0.924256 0.951035 0.934246 0.53499 0.880295 0.54498 0.880295 0.54498 0.924256 0.53499 0.924256 0.951034 0.870304 0.951034 0.880295 0.54498 0.880295 0.54498 0.870304 0.951035 0.924256 0.54498 0.924256 0.54498 0.880295 0.951034 0.880295 0.54498 0.934246 0.951035 0.934246 0.951035 0.978208 0.54498 0.978208 </float_array>
          <technique_common>
            <accessor count="120" offset="0" source="#meshId0-tex0-array" stride="2">
              <param name="S" type="float" />
              <param name="T" type="float" />
            </accessor>
          </technique_common>
        </source>
        <vertices id="meshId0-vertices">
          <input semantic="POSITION" source="#meshId0-positions" />
        </vertices>
        <polylist count="60" material="defaultMaterial">
          <input offset="0" semantic="VERTEX" source="#meshId0-vertices" />
          <input offset="0" semantic="NORMAL" source="#meshId0-normals" />
          <input offset="0" semantic="TANGENT" source="#meshId0-tangents" />
          <input offset="0" semantic="BINORMAL" source="#meshId0-bitangents" />
          <input offset="0" semantic="TEXCOORD" source="#meshId0-tex0" set="0" />
          <vcount>3 3 3 3 3 3 3 3 3 3 3 3 3 3 3 3 3 3 3 3 3 3 3 3 3 3 3 3 3 3 3 3 3 3 3 3 3 3 3 3 3 3 3 3 3 3 3 3 3 3 3 3 3 3 3 3 3 3 3 3 </vcount>
          <p>3 0 1 1 2 3 7 4 5 5 6 7 11 8 9 9 10 11 15 12 13 13 14 15 19 16 17 17 18 19 23 20 21 21 22 23 27 24 25 25 26 27 31 28 29 29 30 31 35 32 33 33 34 35 39 36 37 37 38 39 43 40 41 41 42 43 47 44 45 45 46 47 51 48 49 49 50 51 55 52 53 53 54 55 59 56 57 57 58 59 63 60 61 61 62 63 67 64 65 65 66 67 71 68 69 69 70 71 75 72 73 73 74 75 79 76 77 77 78 79 83 80 81 81 82 83 87 84 85 85 86 87 91 88 89 89 90 91 95 92 93 93 94 95 99 96 97 97 98 99 103 100 101 101 102 103 107 104 105 105 106 107 111 108 109 109 110 111 115 112 113 113 114 115 119 116 117 117 118 119 </p>
        </polylist>
      </mesh>
    </geometry>
    <geometry id="meshId1" name="meshId1_name" >
      <mesh>
        <source id="meshId1-positions" name="meshId1-positions">
          <float_array id="meshId1-positions-array" count="360"> 0.820313 0.0963139 1 0.820313 0.14552 1 0.603782 0.14552 1 0.603782 0.0963139 1 0.820313 0.0963139 -1 0.820313 0.14552 -1 0.820313 0.14552 1 0.820313 0.0963139 1 0.603782 0.0963139 -1 0.603782 0.14552 -1 0.820313 0.14552 -1 0.820313 0.0963139 -1 0.603782 0.0963139 1 0.603782 0.14552 1 0.603782 0.14552 -1 0.603782 0.0963139 -1 0.820313 0.14552 1 0.820313 0.14552 -1 0.603782 0.14552 -1 0.603782 0.14552 1 0.820313 0.0963139 -1 0.820313 0.0963139 1 0.603782 0.0963139 1 0.603782 0.0963139 -1 0.478734 0.0963139 1 0.478734 0.14552 1 0.262204 0.14552 1 0.262204 0.0963139 1 0.478734 0.0963139 -1 0.478734 0.14552 -1 0.478734 0.14552 1 0.478734 0.0963139 1 0.262204 0.0963139 -1 0.262204 0.14552 -1 0.478734 0.14552 -1 0.478734 0.0963139 -1 0.262204 0.0963139 1 0.262204 0.14552 1 0.262204 0.14552 -1 0.262204 0.0963139 -1 0.478734 0.14552 1 0.478734 0.14552 -1 0.262204 0.14552 -1 0.262204 0.14552 1 0.478734 0.0963139 -1 0.478734 0.0963139 1 0.262204 0.0963139 1 0.262204 0.0963139 -1 0.115457 0.0963139 1 0.115457 0.14552 1 -0.101074 0.14552 1 -0.101074 0.0963139 1 0.115457 0.0963139 -1 0.115457 0.14552 -1 0.115457 0.14552 1 0.115457 0.0963139 1 -0.101074 0.0963139 -1 -0.101074 0.14552 -1 0.115457 0.14552 -1 0.115457 0.0963139 -1 -0.101074 0.0963139 1 -0.101074 0.14552 1 -0.101074 0.14552 -1 -0.101074 0.0963139 -1 0.115457 0.14552 1 0.115457 0.14552 -1 -0.101074 0.14552 -1 -0.101074 0.14552 1 0.115457 0.0963139 -1 0.115457 0.0963139 1 -0.101074 0.0963139 1 -0.101074 0.0963139 -1 -0.238149 0.0963139 1 -0.238149 0.14552 1 -0.45468 0.14552 1 -0.45468 0.0963139 1 -0.238149 0.0963139 -1 -0.238149 0.14552 -1 -0.238149 0.14552 1 -0.238149 0.0963139 1 -0.45468 0.0963139 -1 -0.45468 0.14552 -1 -0.238149 0.14552 -1 -0.238149 0.0963139 -1 -0.45468 0.0963139 1 -0.45468 0.14552 1 -0.45468 0.14552 -1 -0.45468 0.0963139 -1 -0.238149 0.14552 1 -0.238149 0.14552 -1 -0.45468 0.14552 -1 -0.45468 0.14552 1 -0.238149 0.0963139 -1 -0.238149 0.0963139 1 -0.45468 0.0963139 1 -0.45468 0.0963139 -1 -0.603782 0.0963139 1 -0.603782 0.14552 1 -0.820313 0.14552 1 -0.820313 0.0963139 1 -0.603782 0.0963139 -1 -0.603782 0.14552 -1 -0.603782 0.14552 1 -0.603782 0.0963139 1 -0.820313 0.0963139 -1 -0.820313 0.14552 -1 -0.603782 0.14552 -1 -0.603782 0.0963139 -1 -0.820313 0.0963139 1 -0.820313 0.14552 1 -0.820313 0.14552 -1 -0.820313 0.0963139 -1 -0.603782 0.14552 1 -0.603782 0.14552 -1 -0.820313 0.14552 -1 -0.820313 0.14552 1 -0.603782 0.0963139 -1 -0.603782 0.0963139 1 -0.820313 0.0963139 1 -0.820313 0.0963139 -1 </float_array>
          <technique_common>
            <accessor count="120" offset="0" source="#meshId1-positions-array" stride="3">
              <param name="X" type="float" />
              <param name="Y" type="float" />
              <param name="Z" type="float" />
            </accessor>
          </technique_common>
        </source>
        <source id="meshId1-normals" name="meshId1-normals">
          <float_array id="meshId1-normals-array" count="360"> 0 0 1 0 0 1 0 0 1 0 0 1 1 0 0 1 0 0 1 0 0 1 0 0 0 0 -1 0 0 -1 0 0 -1 0 0 -1 -1 0 0 -1 0 0 -1 0 0 -1 0 0 0 1 0 0 1 0 0 1 0 0 1 0 0 -1 0 0 -1 0 0 -1 0 0 -1 0 0 0 1 0 0 1 0 0 1 0 0 1 1 0 0 1 0 0 1 0 0 1 0 0 0 0 -1 0 0 -1 0 0 -1 0 0 -1 -1 0 0 -1 0 0 -1 0 0 -1 0 0 0 1 0 0 1 0 0 1 0 0 1 0 0 -1 0 0 -1 0 0 -1 0 0 -1 0 0 0 1 0 0 1 0 0 1 0 0 1 1 0 0 1 0 0 1 0 0 1 0 0 0 0 -1 0 0 -1 0 0 -1 0 0 -1 -1 0 0 -1 0 0 -1 0 0 -1 0 0 0 1 0 0 1 0 0 1 0 0 1 0 0 -1 0 0 -1 0 0 -1 0 0 -1 0 0 0 1 0 0 1 0 0 1 0 0 1 1 0 0 1 0 0 1 0 0 1 0 0 0 0 -1 0 0 -1 0 0 -1 0 0 -1 -1 0 0 -1 0 0 -1 0 0 -1 0 0 0 1 0 0 1 0 0 1 0 0 1 0 0 -1 0 0 -1 0 0 -1 0 0 -1 0 0 0 1 0 0 1 0 0 1 0 0 1 1 0 0 1 0 0 1 0 0 1 0 0 0 0 -1 0 0 -1 0 0 -1 0 0 -1 -1 0 0 -1 0 0 -1 0 0 -1 0 0 0 1 0 0 1 0 0 1 0 0 1 0 0 -1 0 0 -1 0 0 -1 0 0 -1 0 </float_array>
          <technique_common>
            <accessor count="120" offset="0" source="#meshId1-normals-array" stride="3">
              <param name="X" type="float" />
              <param name="Y" type="float" />
              <param name="Z" type="float" />
            </accessor>
          </technique_common>
        </source>
        <source id="meshId1-tangents" name="meshId1-tangents">
          <float_array id="meshId1-tangents-array" count="360"> 0.012914 0.999917 0 0.012928 0.999916 0 0.0130123 0.999915 0 0.0129983 0.999916 0 0 -0.0130431 -0.999915 0 -0.0130431 -0.999915 0 -0.0130393 -0.999915 0 -0.0130394 -0.999915 0.0130123 -0.999915 0 0.0130267 -0.999915 0 0.0131132 -0.999914 0 0.0130988 -0.999914 0 0 0.0130394 -0.999915 0 0.0130394 -0.999915 0 0.0130432 -0.999915 0 0.0130431 -0.999915 0.0130401 0 -0.999915 0.0130422 0 -0.999915 0.0130423 0 -0.999915 0.0130402 0 -0.999915 -0.0130426 0 -0.999915 -0.0130406 0 -0.999915 -0.0130404 0 -0.999915 -0.0130425 0 -0.999915 -9.85927e-05 1 0 -8.45673e-05 1 0 0 1 0 -1.40254e-05 1 0 0 0 -1 0 0 -1 0 0 -1 0 0 -1 0 -1 0 0 -1 0 0 -1 0 0 -1 0 0 -2.49525e-06 -1 0 -2.45617e-06 -1 0 0 -1 0 -3.90769e-08 -1 0 0 -1 0 0 -1 0 0 -1 0 0 -1 0 0 -1 2.32822e-06 0 -1 2.49985e-06 0 -1 1.71631e-07 0 -1 0.00750549 0.999972 0 0.00751992 0.999972 0 0.00760691 0.999971 0 0.00759248 0.999971 0 0 -0.00763938 -0.999971 0 -0.00763938 -0.999971 0 -0.00763938 -0.999971 0 -0.00763938 -0.999971 0.00760692 -0.999971 0 0.00759335 -0.999971 0 0.00751152 -0.999972 0 0.00752509 -0.999972 0 0 0.00763689 -0.999971 0 0.00763689 -0.999971 0 0.00763689 -0.999971 0 0.00763689 -0.999971 0.00763927 0 -0.999971 0.0076371 0 -0.999971 0.00763694 0 -0.999971 0.00763911 0 -0.999971 -0.00763709 0 -0.999971 -0.00763698 0 -0.999971 -0.00763697 0 -0.999971 -0.00763708 0 -0.999971 -0.000298368 1 0 -0.000255923 1 0 0 1 0 -4.24446e-05 1 0 0 -2.49549e-06 -1 0 -2.49549e-06 -1 0 -2.49549e-06 -1 0 -2.49549e-06 -1 0 -1 0 0 -1 0 0 -1 0 0 -1 0 0 0 -1 0 0 -1 0 0 -1 0 0 -1 2.49974e-06 0 -1 1.71623e-07 0 -1 0 0 -1 2.32812e-06 0 -1 2.49985e-06 0 -1 1.71631e-07 0 -1 0 0 -1 2.32822e-06 0 -1 -0.000197185 1 0 -0.000169135 1 0 0 1 0 -2.80508e-05 1 0 0 -2.49549e-06 -1 0 -2.49549e-06 -1 0 -2.49549e-06 -1 0 -2.49549e-06 -1 0 -1 0 0 -1 0 0 -1 0 0 -1 0 0 0 -1 0 0 -1 0 0 -1 0 0 -1 2.49974e-06 0 -1 1.71623e-07 0 -1 0 0 -1 2.32812e-06 0 -1 0 0 -1 0 0 -1 0 0 -1 0 0 -1 </float_array>
          <technique_common>
            <accessor count="120" offset="0" source="#meshId1-tangents-array" stride="3">
              <param name="X" type="float" />
              <param name="Y" type="float" />
              <param name="Z" type="float" />
            </accessor>
          </technique_common>
        </source>
        <source id="meshId1-bitangents" name="meshId1-bitangents">
          <float_array id="meshId1-bitangents-array" count="360"> -0.999917 0.012914 0 -0.999916 0.012928 0 -0.999915 0.0130123 0 -0.999916 0.0129983 0 0 0.999915 -0.0130431 0 0.999915 -0.0130431 0 0.999915 -0.0130393 0 0.999915 -0.0130394 -0.999915 -0.0130123 -0 -0.999915 -0.0130267 -0 -0.999914 -0.0131132 -0 -0.999914 -0.0130988 -0 -0 -0.999915 -0.0130394 -0 -0.999915 -0.0130394 -0 -0.999915 -0.0130432 -0 -0.999915 -0.0130431 -0.999915 0 -0.0130401 -0.999915 0 -0.0130422 -0.999915 0 -0.0130423 -0.999915 0 -0.0130402 0.999915 0 -0.0130426 0.999915 0 -0.0130406 0.999915 0 -0.0130404 0.999915 0 -0.0130425 -1 -9.85927e-05 0 -1 -8.45673e-05 0 -1 0 0 -1 -1.40254e-05 0 -0 1 0 -0 1 0 -0 1 0 -0 1 0 -1 -0 -0 -1 -0 -0 -1 -0 -0 -1 -0 -0 0 -1 2.49525e-06 0 -1 2.45617e-06 -0 -1 -0 0 -1 3.90769e-08 -1 0 0 -1 0 0 -1 0 0 -1 0 0 1 0 0 1 0 2.32822e-06 1 0 2.49985e-06 1 0 1.71631e-07 -0.999972 0.00750549 0 -0.999972 0.00751992 0 -0.999971 0.00760691 0 -0.999971 0.00759248 0 0 0.999971 -0.00763938 0 0.999971 -0.00763938 0 0.999971 -0.00763938 0 0.999971 -0.00763938 -0.999971 -0.00760692 -0 -0.999971 -0.00759335 -0 -0.999972 -0.00751152 -0 -0.999972 -0.00752509 -0 -0 -0.999971 -0.00763689 -0 -0.999971 -0.00763689 -0 -0.999971 -0.00763689 -0 -0.999971 -0.00763689 -0.999971 0 -0.00763927 -0.999971 0 -0.0076371 -0.999971 0 -0.00763694 -0.999971 0 -0.00763911 0.999971 0 -0.00763709 0.999971 0 -0.00763698 0.999971 0 -0.00763697 0.999971 0 -0.00763708 -1 -0.000298368 0 -1 -0.000255923 0 -1 0 0 -1 -4.24446e-05 0 0 1 -2.49549e-06 0 1 -2.49549e-06 0 1 -2.49549e-06 0 1 -2.49549e-06 -1 -0 -0 -1 -0 -0 -1 -0 -0 -1 -0 -0 -0 -1 -0 -0 -1 -0 -0 -1 -0 -0 -1 -0 -1 0 -2.49974e-06 -1 0 -1.71623e-07 -1 0 0 -1 0 -2.32812e-06 1 0 2.49985e-06 1 0 1.71631e-07 1 0 0 1 0 2.32822e-06 -1 -0.000197185 0 -1 -0.000169135 0 -1 0 0 -1 -2.80508e-05 0 0 1 -2.49549e-06 0 1 -2.49549e-06 0 1 -2.49549e-06 0 1 -2.49549e-06 -1 -0 -0 -1 -0 -0 -1 -0 -0 -1 -0 -0 -0 -1 -0 -0 -1 -0 -0 -1 -0 -0 -1 -0 -1 0 -2.49974e-06 -1 0 -1.71623e-07 -1 0 0 -1 0 -2.32812e-06 1 0 0 1 0 0 1 0 0 1 0 0 </float_array>
          <technique_common>
            <accessor count="120" offset="0" source="#meshId1-bitangents-array" stride="3">
              <param name="X" type="float" />
              <param name="Y" type="float" />
              <param name="Z" type="float" />
            </accessor>
          </technique_common>
        </source>
        <source id="meshId1-tex0" name="meshId1-tex0">
          <float_array id="meshId1-tex0-array" count="240"> 0.029625 0.36837 0.039615 0.368499 0.039047 0.412457 0.029058 0.412327 0.445767 0.363805 0.445637 0.373794 0.039615 0.368499 0.039746 0.358509 0.455053 0.417883 0.445064 0.417753 0.445637 0.373794 0.455627 0.373925 0.038916 0.422447 0.039047 0.412457 0.445064 0.417753 0.444934 0.427742 0.039615 0.368499 0.445637 0.373794 0.445064 0.417753 0.039047 0.412457 0.444361 0.4717 0.038342 0.466404 0.038916 0.422447 0.444934 0.427742 0.027059 0.497861 0.03705 0.49786 0.037053 0.541822 0.027062 0.541822 0.443105 0.48787 0.443105 0.49786 0.03705 0.49786 0.03705 0.48787 0.453095 0.541822 0.443105 0.541822 0.443105 0.49786 0.453095 0.49786 0.037052 0.551813 0.037053 0.541822 0.443105 0.541822 0.443105 0.551812 0.03705 0.49786 0.443105 0.49786 0.443105 0.541822 0.037053 0.541822 0.443105 0.595774 0.037052 0.595774 0.037052 0.551813 0.443105 0.551812 0.02785 0.621642 0.037841 0.621717 0.03751 0.665678 0.027519 0.665602 0.443961 0.614829 0.443884 0.624819 0.037841 0.621717 0.037917 0.611727 0.453539 0.668855 0.44355 0.668779 0.443884 0.624819 0.453875 0.624894 0.037433 0.675668 0.03751 0.665678 0.44355 0.668779 0.443474 0.678769 0.037841 0.621717 0.443884 0.624819 0.44355 0.668779 0.03751 0.665678 0.443138 0.722729 0.037097 0.719628 0.037433 0.675668 0.443474 0.678769 0.027056 0.753514 0.037046 0.753511 0.037055 0.797474 0.027065 0.797474 0.443104 0.743522 0.443104 0.753512 0.037046 0.753511 0.037047 0.743521 0.453095 0.797474 0.443105 0.797474 0.443104 0.753512 0.453095 0.753512 0.037055 0.807464 0.037055 0.797474 0.443105 0.797474 0.443106 0.807464 0.037046 0.753511 0.443104 0.753512 0.443105 0.797474 0.037055 0.797474 0.443106 0.851425 0.037054 0.851426 0.037055 0.807464 0.443106 0.807464 0.027058 0.878064 0.037048 0.878062 0.037053 0.922025 0.027063 0.922025 0.443105 0.868073 0.443105 0.878063 0.037048 0.878062 0.037049 0.868072 0.453095 0.922025 0.443105 0.922025 0.443105 0.878063 0.453095 0.878063 0.037053 0.932015 0.037053 0.922025 0.443105 0.922025 0.443105 0.932015 0.037048 0.878062 0.443105 0.878063 0.443105 0.922025 0.037053 0.922025 0.443105 0.975977 0.037052 0.975977 0.037053 0.932015 0.443105 0.932015 </float_array>
          <technique_common>
            <accessor count="120" offset="0" source="#meshId1-tex0-array" stride="2">
              <param name="S" type="float" />
              <param name="T" type="float" />
            </accessor>
          </technique_common>
        </source>
        <vertices id="meshId1-vertices">
          <input semantic="POSITION" source="#meshId1-positions" />
        </vertices>
        <polylist count="60" material="defaultMaterial">
          <input offset="0" semantic="VERTEX" source="#meshId1-vertices" />
          <input offset="0" semantic="NORMAL" source="#meshId1-normals" />
          <input offset="0" semantic="TANGENT" source="#meshId1-tangents" />
          <input offset="0" semantic="BINORMAL" source="#meshId1-bitangents" />
          <input offset="0" semantic="TEXCOORD" source="#meshId1-tex0" set="0" />
          <vcount>3 3 3 3 3 3 3 3 3 3 3 3 3 3 3 3 3 3 3 3 3 3 3 3 3 3 3 3 3 3 3 3 3 3 3 3 3 3 3 3 3 3 3 3 3 3 3 3 3 3 3 3 3 3 3 3 3 3 3 3 </vcount>
          <p>3 0 1 1 2 3 7 4 5 5 6 7 11 8 9 9 10 11 15 12 13 13 14 15 19 16 17 17 18 19 23 20 21 21 22 23 27 24 25 25 26 27 31 28 29 29 30 31 35 32 33 33 34 35 39 36 37 37 38 39 43 40 41 41 42 43 47 44 45 45 46 47 51 48 49 49 50 51 55 52 53 53 54 55 59 56 57 57 58 59 63 60 61 61 62 63 67 64 65 65 66 67 71 68 69 69 70 71 75 72 73 73 74 75 79 76 77 77 78 79 83 80 81 81 82 83 87 84 85 85 86 87 91 88 89 89 90 91 95 92 93 93 94 95 99 96 97 97 98 99 103 100 101 101 102 103 107 104 105 105 106 107 111 108 109 109 110 111 115 112 113 113 114 115 119 116 117 117 118 119 </p>
        </polylist>
      </mesh>
    </geometry>
    <geometry id="meshId2" name="meshId2_name" >
      <mesh>
        <source id="meshId2-positions" name="meshId2-positions">
          <float_array id="meshId2-positions-array" count="216"> 0.792849 -0.0945802 -0.768536 0.792849 0.093423 -0.768536 -0.77922 0.093423 -0.768536 -0.77922 -0.0945802 -0.768536 0.792849 -0.0945802 -0.976331 0.792849 0.093423 -0.976331 0.792849 0.093423 -0.768536 0.792849 -0.0945802 -0.768536 -0.77922 -0.0945802 -0.976331 -0.77922 0.093423 -0.976331 0.792849 0.093423 -0.976331 0.792849 -0.0945802 -0.976331 -0.77922 -0.0945802 -0.768536 -0.77922 0.093423 -0.768536 -0.77922 0.093423 -0.976331 -0.77922 -0.0945802 -0.976331 0.792849 0.093423 -0.768536 0.792849 0.093423 -0.976331 -0.77922 0.093423 -0.976331 -0.77922 0.093423 -0.768536 0.792849 -0.0945802 -0.976331 0.792849 -0.0945802 -0.768536 -0.77922 -0.0945802 -0.768536 -0.77922 -0.0945802 -0.976331 0.792849 -0.0945802 0.129609 0.792849 0.093423 0.129609 -0.77922 0.093423 0.129609 -0.77922 -0.0945802 0.129609 0.792849 -0.0945802 -0.0781865 0.792849 0.093423 -0.0781865 0.792849 0.093423 0.129609 0.792849 -0.0945802 0.129609 -0.77922 -0.0945802 -0.0781865 -0.77922 0.093423 -0.0781865 0.792849 0.093423 -0.0781865 0.792849 -0.0945802 -0.0781865 -0.77922 -0.0945802 0.129609 -0.77922 0.093423 0.129609 -0.77922 0.093423 -0.0781865 -0.77922 -0.0945802 -0.0781865 0.792849 0.093423 0.129609 0.792849 0.093423 -0.0781865 -0.77922 0.093423 -0.0781865 -0.77922 0.093423 0.129609 0.792849 -0.0945802 -0.0781865 0.792849 -0.0945802 0.129609 -0.77922 -0.0945802 0.129609 -0.77922 -0.0945802 -0.0781865 0.792849 -0.0945802 0.99321 0.792849 0.093423 0.99321 -0.77922 0.093423 0.99321 -0.77922 -0.0945802 0.99321 0.792849 -0.0945802 0.785415 0.792849 0.093423 0.785415 0.792849 0.093423 0.99321 0.792849 -0.0945802 0.99321 -0.77922 -0.0945802 0.785415 -0.77922 0.093423 0.785415 0.792849 0.093423 0.785415 0.792849 -0.0945802 0.785415 -0.77922 -0.0945802 0.99321 -0.77922 0.093423 0.99321 -0.77922 0.093423 0.785415 -0.77922 -0.0945802 0.785415 0.792849 0.093423 0.99321 0.792849 0.093423 0.785415 -0.77922 0.093423 0.785415 -0.77922 0.093423 0.99321 0.792849 -0.0945802 0.785415 0.792849 -0.0945802 0.99321 -0.77922 -0.0945802 0.99321 -0.77922 -0.0945802 0.785415 </float_array>
          <technique_common>
            <accessor count="72" offset="0" source="#meshId2-positions-array" stride="3">
              <param name="X" type="float" />
              <param name="Y" type="float" />
              <param name="Z" type="float" />
            </accessor>
          </technique_common>
        </source>
        <source id="meshId2-normals" name="meshId2-normals">
          <float_array id="meshId2-normals-array" count="216"> 0 0 1 0 0 1 0 0 1 0 0 1 1 0 0 1 0 0 1 0 0 1 0 0 0 0 -1 0 0 -1 0 0 -1 0 0 -1 -1 0 0 -1 0 0 -1 0 0 -1 0 0 0 1 0 0 1 0 0 1 0 0 1 0 0 -1 0 0 -1 0 0 -1 0 0 -1 0 0 0 1 0 0 1 0 0 1 0 0 1 1 0 0 1 0 0 1 0 0 1 0 0 0 0 -1 0 0 -1 0 0 -1 0 0 -1 -1 0 0 -1 0 0 -1 0 0 -1 0 0 0 1 0 0 1 0 0 1 0 0 1 0 0 -1 0 0 -1 0 0 -1 0 0 -1 0 0 0 1 0 0 1 0 0 1 0 0 1 1 0 0 1 0 0 1 0 0 1 0 0 0 0 -1 0 0 -1 0 0 -1 0 0 -1 -1 0 0 -1 0 0 -1 0 0 -1 0 0 0 1 0 0 1 0 0 1 0 0 1 0 0 -1 0 0 -1 0 0 -1 0 0 -1 0 </float_array>
          <technique_common>
            <accessor count="72" offset="0" source="#meshId2-normals-array" stride="3">
              <param name="X" type="float" />
              <param name="Y" type="float" />
              <param name="Z" type="float" />
            </accessor>
          </technique_common>
        </source>
        <source id="meshId2-tangents" name="meshId2-tangents">
          <float_array id="meshId2-tangents-array" count="216"> 0.999999 0.00155088 0 0.999999 0.00155088 0 0.999999 0.00155088 0 0.999999 0.00155088 0 0 -0.999999 -0.00154596 0 -0.999999 -0.00154596 0 -0.999999 -0.00154596 0 -0.999999 -0.00154596 0.999999 -0.00155083 0 0.999999 -0.00155083 0 0.999999 -0.00155083 0 0.999999 -0.00155083 0 0 0.999999 -0.00154557 0 0.999999 -0.00155802 0 0.999999 -0.00157215 0 0.999999 -0.00155971 0.999999 0 -0.00155089 0.999999 0 -0.00155089 0.999999 0 -0.00155085 0.999999 0 -0.00155085 0.999999 0 0.00155089 0.999999 0 0.00155089 0.999999 0 0.00155089 0.999999 0 0.00155089 0.999999 0.00155091 0 0.999999 0.00155091 0 0.999999 0.00155092 0 0.999999 0.00155092 0 0 -0.999999 -0.00154561 0 -0.999999 -0.00154567 0 -0.999999 -0.00154573 0 -0.999999 -0.00154567 0.999999 -0.00155088 0 0.999999 -0.00155088 0 0.999999 -0.00155088 0 0.999999 -0.00155088 0 0 0.999999 -0.00154569 0 0.999999 -0.00155802 0 0.999999 -0.00157203 0 0.999999 -0.0015597 0.999999 0 -0.00155089 0.999999 0 -0.00155089 0.999999 0 -0.00155089 0.999999 0 -0.00155089 0.999999 0 0.00155398 0.999999 0 0.00155372 0.999999 0 0.00155088 0.999999 0 0.00155114 -0.999999 -0.00155401 0 -0.999999 -0.00155377 0 -0.999999 -0.00155087 0 -0.999999 -0.00155111 0 0 0.999999 0.00154549 0 0.999999 0.00154571 0 0.999999 0.00154596 0 0.999999 0.00154574 -0.999999 0.00155088 0 -0.999999 0.00155088 0 -0.999999 0.00155088 0 -0.999999 0.00155088 0 0 -0.999999 0.00157168 0 -0.999999 0.00157168 0 -0.999999 0.00157168 0 -0.999999 0.00157168 -0.999999 0 0.00155084 -0.999999 0 0.00155085 -0.999999 0 0.00155089 -0.999999 0 0.00155089 -0.999999 0 -0.00155084 -0.999999 0 -0.00155111 -0.999999 0 -0.00155398 -0.999999 0 -0.00155372 </float_array>
          <technique_common>
            <accessor count="72" offset="0" source="#meshId2-tangents-array" stride="3">
              <param name="X" type="float" />
              <param name="Y" type="float" />
              <param name="Z" type="float" />
            </accessor>
          </technique_common>
        </source>
        <source id="meshId2-bitangents" name="meshId2-bitangents">
          <float_array id="meshId2-bitangents-array" count="216"> -0.00155088 0.999999 0 -0.00155088 0.999999 0 -0.00155088 0.999999 0 -0.00155088 0.999999 0 0 0.00154596 -0.999999 0 0.00154596 -0.999999 0 0.00154596 -0.999999 0 0.00154596 -0.999999 -0.00155083 -0.999999 -0 -0.00155083 -0.999999 -0 -0.00155083 -0.999999 -0 -0.00155083 -0.999999 -0 -0 -0.00154557 -0.999999 -0 -0.00155802 -0.999999 -0 -0.00157215 -0.999999 -0 -0.00155971 -0.999999 -0.00155089 0 -0.999999 -0.00155089 0 -0.999999 -0.00155085 0 -0.999999 -0.00155085 0 -0.999999 -0.00155089 0 0.999999 -0.00155089 0 0.999999 -0.00155089 0 0.999999 -0.00155089 0 0.999999 -0.00155091 0.999999 0 -0.00155091 0.999999 0 -0.00155092 0.999999 0 -0.00155092 0.999999 0 0 0.00154561 -0.999999 0 0.00154567 -0.999999 0 0.00154573 -0.999999 0 0.00154567 -0.999999 -0.00155088 -0.999999 -0 -0.00155088 -0.999999 -0 -0.00155088 -0.999999 -0 -0.00155088 -0.999999 -0 -0 -0.00154569 -0.999999 -0 -0.00155802 -0.999999 -0 -0.00157203 -0.999999 -0 -0.0015597 -0.999999 -0.00155089 0 -0.999999 -0.00155089 0 -0.999999 -0.00155089 0 -0.999999 -0.00155089 0 -0.999999 -0.00155398 0 0.999999 -0.00155372 0 0.999999 -0.00155088 0 0.999999 -0.00155114 0 0.999999 0.00155401 -0.999999 0 0.00155377 -0.999999 0 0.00155087 -0.999999 0 0.00155111 -0.999999 0 0 -0.00154549 0.999999 0 -0.00154571 0.999999 0 -0.00154596 0.999999 0 -0.00154574 0.999999 0.00155088 0.999999 0 0.00155088 0.999999 0 0.00155088 0.999999 0 0.00155088 0.999999 0 0 0.00157168 0.999999 0 0.00157168 0.999999 0 0.00157168 0.999999 0 0.00157168 0.999999 0.00155084 -0 0.999999 0.00155085 -0 0.999999 0.00155089 -0 0.999999 0.00155089 -0 0.999999 0.00155084 0 -0.999999 0.00155111 0 -0.999999 0.00155398 0 -0.999999 0.00155372 0 -0.999999 </float_array>
          <technique_common>
            <accessor count="72" offset="0" source="#meshId2-bitangents-array" stride="3">
              <param name="X" type="float" />
              <param name="Y" type="float" />
              <param name="Z" type="float" />
            </accessor>
          </technique_common>
        </source>
        <source id="meshId2-tex0" name="meshId2-tex0">
          <float_array id="meshId2-tex0-array" count="144"> 0.400394 0.159919 0.400453 0.198089 0.081281 0.198584 0.081221 0.160414 0.438688 0.240218 0.400518 0.240277 0.400453 0.198089 0.438622 0.19803 0.081405 0.278942 0.081346 0.240772 0.400518 0.240277 0.400578 0.278447 0.043111 0.198643 0.081281 0.198584 0.081346 0.240772 0.043176 0.240832 0.400453 0.198089 0.400518 0.240277 0.081346 0.240772 0.081281 0.198584 0.400328 0.117731 0.400394 0.159919 0.081221 0.160414 0.081155 0.118226 0.908585 0.062292 0.908643 0.100461 0.589471 0.100956 0.589412 0.062787 0.946879 0.14259 0.908709 0.142649 0.908643 0.100461 0.946813 0.100402 0.589596 0.181314 0.589536 0.143144 0.908709 0.142649 0.908768 0.180819 0.551301 0.101015 0.589471 0.100956 0.589536 0.143144 0.551367 0.143204 0.908643 0.100461 0.908709 0.142649 0.589536 0.143144 0.589471 0.100956 0.908519 0.020103 0.908585 0.062292 0.589412 0.062787 0.589346 0.020599 0.589793 0.308431 0.589734 0.270261 0.908906 0.269766 0.908966 0.307935 0.551499 0.228132 0.589669 0.228073 0.589734 0.270261 0.551564 0.27032 0.908781 0.189408 0.908841 0.227578 0.589669 0.228073 0.589609 0.189903 0.947076 0.269706 0.908906 0.269766 0.908841 0.227578 0.947011 0.227518 0.589734 0.270261 0.589669 0.228073 0.908841 0.227578 0.908906 0.269766 0.589859 0.350619 0.589793 0.308431 0.908966 0.307935 0.909031 0.350124 </float_array>
          <technique_common>
            <accessor count="72" offset="0" source="#meshId2-tex0-array" stride="2">
              <param name="S" type="float" />
              <param name="T" type="float" />
            </accessor>
          </technique_common>
        </source>
        <vertices id="meshId2-vertices">
          <input semantic="POSITION" source="#meshId2-positions" />
        </vertices>
        <polylist count="36" material="defaultMaterial">
          <input offset="0" semantic="VERTEX" source="#meshId2-vertices" />
          <input offset="0" semantic="NORMAL" source="#meshId2-normals" />
          <input offset="0" semantic="TANGENT" source="#meshId2-tangents" />
          <input offset="0" semantic="BINORMAL" source="#meshId2-bitangents" />
          <input offset="0" semantic="TEXCOORD" source="#meshId2-tex0" set="0" />
          <vcount>3 3 3 3 3 3 3 3 3 3 3 3 3 3 3 3 3 3 3 3 3 3 3 3 3 3 3 3 3 3 3 3 3 3 3 3 </vcount>
          <p>3 0 1 1 2 3 7 4 5 5 6 7 11 8 9 9 10 11 15 12 13 13 14 15 19 16 17 17 18 19 23 20 21 21 22 23 27 24 25 25 26 27 31 28 29 29 30 31 35 32 33 33 34 35 39 36 37 37 38 39 43 40 41 41 42 43 47 44 45 45 46 47 51 48 49 49 50 51 55 52 53 53 54 55 59 56 57 57 58 59 63 60 61 61 62 63 67 64 65 65 66 67 71 68 69 69 70 71 </p>
        </polylist>
      </mesh>
    </geometry>
  </library_geometries>
  <library_visual_scenes>
    <visual_scene id="Palet%20Low%20Poly.obj" name="Palet%20Low%20Poly.obj">
      <node id="g Palet_low_poly" name="g Palet_low_poly">
        <matrix>1 0 0 0 0 1 0 0 0 0 1 0 0 0 0 1</matrix>
        <instance_geometry url="#meshId0">
          <bind_material>
            <technique_common>
              <instance_material symbol="defaultMaterial" target="#Bot" />
            </technique_common>
          </bind_material>
        </instance_geometry>
        <instance_geometry url="#meshId1">
          <bind_material>
            <technique_common>
              <instance_material symbol="defaultMaterial" target="#Top" />
            </technique_common>
          </bind_material>
        </instance_geometry>
        <instance_geometry url="#meshId2">
          <bind_material>
            <technique_common>
              <instance_material symbol="defaultMaterial" target="#Mid" />
            </technique_common>
          </bind_material>
        </instance_geometry>
      </node>
    </visual_scene>
  </library_visual_scenes>
  <scene>
    <instance_visual_scene url="#Palet%20Low%20Poly.obj" />
  </scene>
</COLLADA>
